<?xml version="1.0" encoding="UTF-8" standalone="no"?>
<!-- Created with Inkscape (http://www.inkscape.org/) -->

<svg
   version="1.1"
   id="svg1"
   width="400"
   height="400"
   viewBox="0 0 400 400"
   xmlns="http://www.w3.org/2000/svg"
   xmlns:svg="http://www.w3.org/2000/svg">
  <defs
     id="defs1" />
  <g
     id="g7">
    <rect
       style="fill:#f4ebde;fill-opacity:1;fill-rule:evenodd;stroke-width:0;stroke-linecap:round;stroke-linejoin:round"
       id="rect7"
       width="400"
       height="400"
       x="0"
       y="0" />
    <path
       style="display:inline;fill:#fbdacb;fill-opacity:1;fill-rule:evenodd;stroke-width:0;stroke-linecap:round;stroke-linejoin:round"
       d="m 0,0 v 120 c 57.842064,37.39467 129.70774,54.32855 180,-35 V 0 Z"
       id="path1" />
    <path
       style="display:inline;fill:#b1bab9;fill-opacity:1;fill-rule:evenodd;stroke-width:0;stroke-linecap:round;stroke-linejoin:round"
       d="m 90,0 c 54.12495,129.27931 184.72013,185.33573 310,155 V 0 Z"
       id="path2" />
    <path
       style="display:none;fill:#dc9d98;fill-opacity:1;fill-rule:evenodd;stroke-width:0;stroke-linecap:round;stroke-linejoin:round"
       id="path3"
       d="M -2.9015956e-7,232.60378 A 70,70 0 0 1 88.623111,248.23042 a 70,70 0 0 1 0,89.99027 A 70,70 0 0 1 1.4507979e-7,353.84733 Z" />
    <path
       style="fill:#aaaca1;fill-opacity:1;fill-rule:evenodd;stroke-width:0;stroke-linecap:round;stroke-linejoin:round"
       id="path4"
       d="M 0,280 A 120,120 0 0 1 120,400 H 0 Z" />
    <path
       style="display:inline;fill:#8ea1a5;fill-opacity:1;fill-rule:evenodd;stroke-width:0;stroke-linecap:round;stroke-linejoin:round"
       id="path7"
       d="M 116.28342,392.69107 A 207.00327,198.97447 0 0 1 323.28668,193.7166 v 198.97447 z" />
    <path
       style="fill:#c2aeb0;fill-opacity:1;fill-rule:evenodd;stroke-width:0;stroke-linecap:round;stroke-linejoin:round"
       id="path5"
       d="m 94.748657,400 a 90,90 0 0 1 90.000003,-90 90,90 0 0 1 90,90" />
    <path
       style="fill:#f3c4b2;fill-opacity:1;fill-rule:evenodd;stroke-width:0;stroke-linecap:round;stroke-linejoin:round"
       id="path6"
       d="M 175,400 A 225,225 0 0 1 400,175 v 225 z" />
  </g>
</svg>
